<svg class="typst-doc" viewBox="0 0 432 77" width="432pt" height="77pt" xmlns="http://www.w3.org/2000/svg" xmlns:xlink="http://www.w3.org/1999/xlink" xmlns:h5="http://www.w3.org/1999/xhtml">
    <g>
        <g class="typst-group" transform="matrix(1 0 0 1 16 16)">
            <g>
                <path class="typst-shape" fill="#21262d" fill-rule="nonzero" stroke="#8b949e" stroke-width="1" stroke-linecap="butt" stroke-linejoin="miter" stroke-miterlimit="4" d="M 0 0v 45 h 400 v -45 Z "/>
                <g class="typst-text" transform="matrix(1 0 0 -1 139.33333333333331 20.575)">
                    <use xlink:href="#gA616D9181F0B5B25BC8DEF42A2EA01DC" x="0" y="0" fill="#ffffff" fill-rule="nonzero"/>
                    <use xlink:href="#g5D52FC5AEA62DAAC7F7244E0492F308D" x="9.333333333333332" y="0" fill="#ffffff" fill-rule="nonzero"/>
                    <use xlink:href="#g91E8BDFB13DC5CC27F7FA635D859F618" x="18.666666666666664" y="0" fill="#ffffff" fill-rule="nonzero"/>
                    <use xlink:href="#g91E8BDFB13DC5CC27F7FA635D859F618" x="27.999999999999996" y="0" fill="#ffffff" fill-rule="nonzero"/>
                    <use xlink:href="#g7369FB03307B05E13B2DCE5B199531C7" x="46.66666666666666" y="0" fill="#ffffff" fill-rule="nonzero"/>
                    <use xlink:href="#g7D7D70C00BA11BA3466AC26B5E09178A" x="55.999999999999986" y="0" fill="#ffffff" fill-rule="nonzero"/>
                    <use xlink:href="#g91E8BDFB13DC5CC27F7FA635D859F618" x="65.33333333333331" y="0" fill="#ffffff" fill-rule="nonzero"/>
                    <use xlink:href="#g5D52FC5AEA62DAAC7F7244E0492F308D" x="74.66666666666664" y="0" fill="#ffffff" fill-rule="nonzero"/>
                    <use xlink:href="#gA83B3C2E008EA8FBB25171D125B27FFD" x="83.99999999999997" y="0" fill="#ffffff" fill-rule="nonzero"/>
                    <use xlink:href="#g91E8BDFB13DC5CC27F7FA635D859F618" x="93.3333333333333" y="0" fill="#ffffff" fill-rule="nonzero"/>
                    <use xlink:href="#g78F52DD90568D9578996844C6AE65CE3" x="102.66666666666663" y="0" fill="#ffffff" fill-rule="nonzero"/>
                    <use xlink:href="#gA7DC4976838A6C281A1BA56B64818934" x="111.99999999999996" y="0" fill="#ffffff" fill-rule="nonzero"/>
                </g>
                <g class="typst-text" transform="matrix(1 0 0 -1 153.33333333333334 34.925000000000004)">
                    <use xlink:href="#g4CB96657F74F1790CD0C5EAC4FA3CDD3" x="0" y="0" fill="#a5d6ff" fill-rule="nonzero"/>
                    <use xlink:href="#g72776E3D1A75085B40F2C1ECD5F956C1" x="4.666666666666666" y="0" fill="#a5d6ff" fill-rule="nonzero"/>
                    <use xlink:href="#gE95C3AD6C693D72DBE71240E1960B193" x="9.333333333333332" y="0" fill="#a5d6ff" fill-rule="nonzero"/>
                    <use xlink:href="#g730B0364C9DD27CD3A26EA78FFFF9930" x="13.999999999999998" y="0" fill="#a5d6ff" fill-rule="nonzero"/>
                    <use xlink:href="#g82339DD051CB78E87EF2DAA50147794B" x="18.666666666666664" y="0" fill="#a5d6ff" fill-rule="nonzero"/>
                    <use xlink:href="#g4FCCE4C7BC6CB2E637266A50B1ACF2E0" x="27.999999999999993" y="0" fill="#a5d6ff" fill-rule="nonzero"/>
                    <use xlink:href="#g8AF794492FF843408A35517470A0676A" x="32.66666666666666" y="0" fill="#a5d6ff" fill-rule="nonzero"/>
                    <use xlink:href="#gAD935D5F67A2D9458054BB6BFC21F911" x="37.33333333333332" y="0" fill="#a5d6ff" fill-rule="nonzero"/>
                    <use xlink:href="#g29053ED123F20980CEF18B936929F19C" x="46.66666666666665" y="0" fill="#a5d6ff" fill-rule="nonzero"/>
                    <use xlink:href="#g307AB3830D2CA3843E1BCA6452801AA3" x="55.99999999999998" y="0" fill="#a5d6ff" fill-rule="nonzero"/>
                    <use xlink:href="#gDF2041A3F9E1EF30D79CBB61DE33CB45" x="60.66666666666664" y="0" fill="#a5d6ff" fill-rule="nonzero"/>
                    <use xlink:href="#g98B84F84D4A20A8BB5D242D4EE9506FE" x="65.33333333333331" y="0" fill="#a5d6ff" fill-rule="nonzero"/>
                    <use xlink:href="#g730B0364C9DD27CD3A26EA78FFFF9930" x="69.99999999999999" y="0" fill="#a5d6ff" fill-rule="nonzero"/>
                    <use xlink:href="#gDF2041A3F9E1EF30D79CBB61DE33CB45" x="74.66666666666666" y="0" fill="#a5d6ff" fill-rule="nonzero"/>
                    <use xlink:href="#g82339DD051CB78E87EF2DAA50147794B" x="79.33333333333333" y="0" fill="#a5d6ff" fill-rule="nonzero"/>
                    <use xlink:href="#gCB1C1FC45E62AF49A4146A4048A2BE29" x="88.66666666666667" y="0" fill="#a5d6ff" fill-rule="nonzero"/>
                </g>
            </g>
        </g>
    </g>
    <defs id="glyph">
        <symbol id="gA616D9181F0B5B25BC8DEF42A2EA01DC" overflow="visible">
            <path d="M 0 0v 1.1666666 h 1.1666666 v 3.5 h -1.1666666 v 1.166667 h 1.1666666 v 3.4999995 h 1.1666666 v 1.166667 h 3.5000002 v -1.166667 h 1.1666665 v -2.333333 h -1.1666665 v 1.166667 h -1.166667 v 1.166666 h -1.1666665 v -3.4999995 h 1.1666665 v -1.166667 h -1.1666665 v -3.5 h 1.1666665 v -1.1666666 h -4.6666665 Z "/>
        </symbol>
        <symbol id="g5D52FC5AEA62DAAC7F7244E0492F308D" overflow="visible">
            <path d="M 0 0v 1.1666666 h 1.1666666 v 4.666667 h -1.1666666 v 1.1666665 h 2.3333333 v -1.1666665 h 1.1666667 v 1.1666665 h 3.5 v -1.1666665 h 1.166667 v -2.3333335 h -2.3333335 v 2.3333335 h -1.166667 v -1.166667 h -1.1666665 v -3.5 h 1.1666665 v -1.1666666 h -4.6666665 Z "/>
        </symbol>
        <symbol id="g91E8BDFB13DC5CC27F7FA635D859F618" overflow="visible">
            <path d="M 0 0m 0 1.1666666 v 4.666667 h 1.1666666 v 1.1666665 h 5.8333335 v -1.1666665 h 1.166667 v -2.3333335 h -5.833334 v -2.3333335 h 3.5000002 v 1.1666666 h 2.3333335 v -1.1666666 h -1.166667 v -1.1666666 h -5.8333335 v 1.1666666 h -1.1666666 Z m 2.3333333 4.666667 v -1.166667 h 3.5000002 v 1.166667 h -3.5000002 Z "/>
        </symbol>
        <symbol id="g7369FB03307B05E13B2DCE5B199531C7" overflow="visible">
            <path d="M 0 0m 2.3333333 2.3333333 v 5.833334 h 1.1666667 v 1.166666 h 1.1666665 v 1.166667 h 2.3333335 v -1.166667 h -1.1666665 v -1.166666 h -1.166667 v -5.833334 h 1.166667 v -1.1666666 h 1.1666665 v -1.1666666 h -2.3333335 v 1.1666666 h -1.1666665 v 1.1666666 h -1.1666667 Z "/>
        </symbol>
        <symbol id="g7D7D70C00BA11BA3466AC26B5E09178A" overflow="visible">
            <path d="M 0 0v 7 h 3.5 v -1.1666665 h 1.1666665 v 1.1666665 h 2.3333335 v -1.1666665 h 1.166667 v -5.8333335 h -2.3333335 v 4.6666665 h -1.166667 v -3.5 h -1.1666665 v 3.5 h -1.1666667 v -4.6666665 h -2.3333333 Z "/>
        </symbol>
        <symbol id="gA83B3C2E008EA8FBB25171D125B27FFD" overflow="visible">
            <path d="M 0 0m 0 -1.1666666 v 1.1666666 h 2.3333333 v -1.1666666 h 2.3333333 v 2.3333333 h -3.5 v 1.1666666 h -1.1666666 v 3.5000002 h 1.1666666 v 1.1666665 h 3.5 v -1.1666665 h -2.3333333 v -3.5000002 h 2.3333333 v 3.5000002 h 1.166667 v 1.1666665 h 2.3333335 v -1.1666665 h -1.166667 v -7 h -1.1666665 v -1.1666666 h -4.666667 v 1.1666666 h -1.1666666 Z "/>
        </symbol>
        <symbol id="g78F52DD90568D9578996844C6AE65CE3" overflow="visible">
            <path d="M 0 0m 0 1.1666666 v 3.5 h 1.1666666 v 1.166667 h 1.1666666 v 1.1666665 h 2.3333333 v 2.333333 h -1.1666665 v 1.166667 h 3.5 v -9.333333 h 1.166667 v -1.1666666 h -2.3333335 v 1.1666666 h -1.166667 v 4.666667 h -1.1666665 v -1.166667 h -1.1666667 v -3.5 h 2.3333333 v -1.1666666 h -3.5 v 1.1666666 h -1.1666666 Z "/>
        </symbol>
        <symbol id="gA7DC4976838A6C281A1BA56B64818934" overflow="visible">
            <path d="M 0 0m 2.3333333 0 v 1.1666666 h 1.1666667 v 1.1666666 h 1.1666665 v 5.833334 h -1.1666665 v 1.166666 h -1.1666667 v 1.166667 h 2.3333333 v -1.166667 h 1.166667 v -1.166666 h 1.1666665 v -5.833334 h -1.1666665 v -1.1666666 h -1.166667 v -1.1666666 h -2.3333333 Z "/>
        </symbol>
        <symbol id="g4CB96657F74F1790CD0C5EAC4FA3CDD3" overflow="visible">
            <path d="M 0 0m 0 0.5833333 v 0.5833333 h 1.1666666 v -0.5833333 h 1.7500001 v 0.5833333 h -1.1666667 v 0.5833334 h -1.1666667 v 0.58333325 h -0.5833333 v 0.5833335 h 0.5833333 v 0.58333325 h 2.9166667 v -0.58333325 h 0.5833335 v -0.5833335 h -1.1666667 v 0.5833335 h -1.7500001 v -0.5833335 h 1.1666666 v -0.58333325 h 1.1666667 v -0.5833334 h 0.5833335 v -0.5833333 h -0.5833335 v -0.5833333 h -2.9166667 v 0.5833333 h -0.5833333 Z "/>
        </symbol>
        <symbol id="g72776E3D1A75085B40F2C1ECD5F956C1" overflow="visible">
            <path d="M 0 0m 1.1666666 0 v 0.5833333 h 0.5833334 v 2.3333335 h -0.5833334 v 0.58333325 h 1.7500001 v -2.9166667 h 0.58333325 v -0.5833333 h -2.3333335 Z m 0.5833334 4.0833335 v 1.1666665 h 1.1666667 v -1.1666665 h -1.1666667 Z "/>
        </symbol>
        <symbol id="gE95C3AD6C693D72DBE71240E1960B193" overflow="visible">
            <path d="M 0 0v 0.5833333 h 0.5833333 v 0.5833333 h 0.5833333 v 0.5833334 h 0.5833334 v 0.58333325 h 0.58333325 v 0.5833335 h -1.1666666 v -0.5833335 h -1.1666666 v 1.1666667 h 4.0833335 v -0.58333325 h -0.5833335 v -0.5833335 h -0.58333325 v -0.58333325 h -0.5833335 v -0.5833334 h -0.58333325 v -0.5833333 h 1.1666667 v 0.5833333 h 1.1666667 v -1.1666666 h -4.0833335 Z "/>
        </symbol>
        <symbol id="g730B0364C9DD27CD3A26EA78FFFF9930" overflow="visible">
            <path d="M 0 0m 0 0.5833333 v 2.3333335 h 0.5833333 v 0.58333325 h 2.9166667 v -0.58333325 h 0.5833335 v -1.1666667 h -2.916667 v -1.1666667 h 1.7500001 v 0.5833333 h 1.1666667 v -0.5833333 h -0.5833335 v -0.5833333 h -2.9166667 v 0.5833333 h -0.5833333 Z m 1.1666666 2.3333335 v -0.5833335 h 1.7500001 v 0.5833335 h -1.7500001 Z "/>
        </symbol>
        <symbol id="g82339DD051CB78E87EF2DAA50147794B" overflow="visible">
            <path d="M 0 0m 2.9166667 0.5833333 h -1.1666667 v 1.1666667 h 1.1666667 v -1.1666667 Z m 0 2.9166667 h -1.1666667 v 1.1666665 h 1.1666667 v -1.1666665 Z "/>
        </symbol>
        <symbol id="g4FCCE4C7BC6CB2E637266A50B1ACF2E0" overflow="visible">
            <path d="M 0 0m 0.5833333 0 v 0.5833333 h 1.1666667 v 2.9166667 h -1.1666667 v 0.5833335 h 0.5833333 v 0.583333 h 0.5833334 v 0.5833335 h 1.1666667 v -4.6666665 h 1.1666667 v -0.5833333 h -3.5000002 Z "/>
        </symbol>
        <symbol id="g8AF794492FF843408A35517470A0676A" overflow="visible">
            <path d="M 0 0m 0 1.1666666 h 0.5833333 v 0.5833334 h 0.5833333 v 0.58333325 h 0.5833334 v 0.5833335 h 0.58333325 v 0.58333325 h 0.5833335 v 1.1666665 h -1.7500001 v -0.583333 h -1.1666666 v 0.583333 h 0.5833333 v 0.5833335 h 2.9166667 v -0.5833335 h 0.5833335 v -1.1666665 h -0.5833335 v -0.58333325 h -0.58333325 v -0.5833335 h -0.5833335 v -0.58333325 h -0.58333325 v -0.5833334 h -0.5833334 v -0.5833333 h 1.7500001 v 0.5833333 h 1.1666667 v -1.1666666 h -4.0833335 v 1.1666666 Z "/>
        </symbol>
        <symbol id="gAD935D5F67A2D9458054BB6BFC21F911" overflow="visible">
            <path d="M 0 0m 0 0.5833333 v 1.75 h 0.5833333 v 0.5833335 h -0.5833333 v 1.7499998 h 0.5833333 v 0.5833335 h 2.9166667 v -0.5833335 h 0.5833335 v -1.7499998 h -0.5833335 v -0.5833335 h 0.5833335 v -1.75 h -0.5833335 v -0.5833333 h -2.9166667 v 0.5833333 h -0.5833333 Z m 1.1666666 0 h 1.7500001 v 1.75 h -1.7500001 v -1.75 Z m 0 2.3333335 h 1.7500001 v 1.7499998 h -1.7500001 v -1.7499998 Z "/>
        </symbol>
        <symbol id="g29053ED123F20980CEF18B936929F19C" overflow="visible">
            <path d="M 0 0m 2.9166667 0 h -1.1666667 v 2.3333333 h 1.1666667 v -2.3333333 Z m 0 2.9166667 h -1.1666667 v 2.3333333 h 1.1666667 v -2.3333333 Z "/>
        </symbol>
        <symbol id="g307AB3830D2CA3843E1BCA6452801AA3" overflow="visible">
            <path d="M 0 0m 0 0.5833333 v 2.3333335 h 0.5833333 v 0.58333325 h 2.9166667 v -0.58333325 h 0.5833335 v -2.3333335 h -0.5833335 v -0.5833333 h -2.9166667 v 0.5833333 h -0.5833333 Z m 1.1666666 0 h 1.7500001 v 2.3333335 h -1.7500001 v -2.3333335 Z "/>
        </symbol>
        <symbol id="gDF2041A3F9E1EF30D79CBB61DE33CB45" overflow="visible">
            <path d="M 0 0v 0.5833333 h 0.5833333 v 2.3333335 h -0.5833333 v 0.58333325 h 1.1666666 v -0.58333325 h 0.5833334 v 0.58333325 h 1.75 v -0.58333325 h 0.5833335 v -1.1666667 h -1.1666667 v 1.1666667 h -0.5833335 v -0.5833335 h -0.58333325 v -1.75 h 0.58333325 v -0.5833333 h -2.3333333 Z "/>
        </symbol>
        <symbol id="g98B84F84D4A20A8BB5D242D4EE9506FE" overflow="visible">
            <path d="M 0 0m 0 0.5833333 v 1.75 h 0.5833333 v 0.5833335 h 0.5833333 v 0.58333325 h 1.1666666 v 1.1666665 h -0.58333325 v 0.5833335 h 1.75 v -4.6666665 h 0.5833335 v -0.5833333 h -1.1666667 v 0.5833333 h -0.5833335 v 2.3333335 h -0.58333325 v -0.5833335 h -0.5833334 v -1.75 h 1.1666666 v -0.5833333 h -1.75 v 0.5833333 h -0.5833333 Z "/>
        </symbol>
        <symbol id="gCB1C1FC45E62AF49A4146A4048A2BE29" overflow="visible">
            <path d="M 0 0m 0 4.0833335 v 1.1666665 h 4.0833335 v -1.75 h -0.5833335 v -0.58333325 h -0.58333325 v -0.5833335 h -0.5833335 v -2.3333333 h -1.1666666 v 2.3333333 h 0.5833334 v 0.5833335 h 0.58333325 v 0.58333325 h 0.5833335 v 1.1666665 h -1.7500001 v -0.583333 h -1.1666666 Z "/>
        </symbol>
    </defs>
</svg>
