<svg class="typst-doc" viewBox="0 0 452 77" width="452pt" height="77pt" xmlns="http://www.w3.org/2000/svg" xmlns:xlink="http://www.w3.org/1999/xlink" xmlns:h5="http://www.w3.org/1999/xhtml">
    <g>
        <g class="typst-group" transform="matrix(1 0 0 1 16 16)">
            <g>
                <path class="typst-shape" fill="#238636" fill-rule="nonzero" stroke="#8b949e" stroke-width="1" stroke-linecap="butt" stroke-linejoin="miter" stroke-miterlimit="4" d="M 0 0v 45 h 120 v -45 Z "/>
                <g class="typst-text" transform="matrix(1 0 0 -1 8.666666666666663 20.575)">
                    <use xlink:href="#g2FE057112EE727B52954A245A6C31778" x="0" y="0" fill="#ffffff" fill-rule="nonzero"/>
                    <use xlink:href="#g6B13A0E30D9B8B59C0AB17525358985D" x="9.333333333333332" y="0" fill="#ffffff" fill-rule="nonzero"/>
                    <use xlink:href="#gD4F92B52706F960662A427C33C793561" x="18.666666666666664" y="0" fill="#ffffff" fill-rule="nonzero"/>
                    <use xlink:href="#g84B980FE9700E68074725196FE201B23" x="27.999999999999996" y="0" fill="#ffffff" fill-rule="nonzero"/>
                    <use xlink:href="#gEA141592ED784869B8281B9C264FCC9" x="46.66666666666666" y="0" fill="#ffffff" fill-rule="nonzero"/>
                    <use xlink:href="#g91E8BDFB13DC5CC27F7FA635D859F618" x="55.999999999999986" y="0" fill="#ffffff" fill-rule="nonzero"/>
                    <use xlink:href="#gD4F92B52706F960662A427C33C793561" x="65.33333333333331" y="0" fill="#ffffff" fill-rule="nonzero"/>
                    <use xlink:href="#g78F52DD90568D9578996844C6AE65CE3" x="74.66666666666664" y="0" fill="#ffffff" fill-rule="nonzero"/>
                    <use xlink:href="#g91E8BDFB13DC5CC27F7FA635D859F618" x="83.99999999999997" y="0" fill="#ffffff" fill-rule="nonzero"/>
                    <use xlink:href="#g5D52FC5AEA62DAAC7F7244E0492F308D" x="93.3333333333333" y="0" fill="#ffffff" fill-rule="nonzero"/>
                </g>
                <g class="typst-text" transform="matrix(1 0 0 -1 20.33333333333334 34.925000000000004)">
                    <use xlink:href="#g72776E3D1A75085B40F2C1ECD5F956C1" x="0" y="0" fill="#a5d6ff" fill-rule="nonzero"/>
                    <use xlink:href="#g98B84F84D4A20A8BB5D242D4EE9506FE" x="4.666666666666666" y="0" fill="#a5d6ff" fill-rule="nonzero"/>
                    <use xlink:href="#gF5EE6A836E5594C6C4300FD1492DC88C" x="13.999999999999998" y="0" fill="#a5d6ff" fill-rule="nonzero"/>
                    <use xlink:href="#g2A3AD2375BB2FDBCF3B7AA87DCB41418" x="18.666666666666664" y="0" fill="#a5d6ff" fill-rule="nonzero"/>
                    <use xlink:href="#gABEF05BBF1B2C38F11DA0C9C9E72F613" x="23.33333333333333" y="0" fill="#a5d6ff" fill-rule="nonzero"/>
                    <use xlink:href="#gBB560E0332772C59C6C3A76EE988F066" x="27.999999999999993" y="0" fill="#a5d6ff" fill-rule="nonzero"/>
                    <use xlink:href="#gE3116C6A8C9BB7676C10DC6A7FB06EF4" x="32.66666666666666" y="0" fill="#a5d6ff" fill-rule="nonzero"/>
                    <use xlink:href="#g730B0364C9DD27CD3A26EA78FFFF9930" x="37.33333333333332" y="0" fill="#a5d6ff" fill-rule="nonzero"/>
                    <use xlink:href="#g98B84F84D4A20A8BB5D242D4EE9506FE" x="41.999999999999986" y="0" fill="#a5d6ff" fill-rule="nonzero"/>
                    <use xlink:href="#g2CEE5D9F88CC7A39BE964692967C8775" x="51.333333333333314" y="0" fill="#a5d6ff" fill-rule="nonzero"/>
                    <use xlink:href="#gF8F8700ADD6E36DC4BC2C07A702B0A92" x="55.99999999999998" y="0" fill="#a5d6ff" fill-rule="nonzero"/>
                    <use xlink:href="#gEF807E07F2940DAF0D9C597FF06BCFA0" x="60.66666666666664" y="0" fill="#a5d6ff" fill-rule="nonzero"/>
                    <use xlink:href="#g4FCCE4C7BC6CB2E637266A50B1ACF2E0" x="65.33333333333331" y="0" fill="#a5d6ff" fill-rule="nonzero"/>
                    <use xlink:href="#gBAB823DE83ED8D050F3E87C10F171AF7" x="69.99999999999999" y="0" fill="#a5d6ff" fill-rule="nonzero"/>
                    <use xlink:href="#g601661A73BC649B3D00B6732BFAE9E41" x="74.66666666666666" y="0" fill="#a5d6ff" fill-rule="nonzero"/>
                </g>
                <path class="typst-shape" fill="#1f6feb" fill-rule="nonzero" stroke="#8b949e" stroke-width="1" stroke-linecap="butt" stroke-linejoin="miter" stroke-miterlimit="4" transform="matrix(1 0 0 1 120 0)" d="M 0 0v 45 h 80 v -45 Z "/>
                <g class="typst-text" transform="matrix(1 0 0 -1 141.33333333333331 20.575)">
                    <use xlink:href="#g78F52DD90568D9578996844C6AE65CE3" x="0" y="0" fill="#ffffff" fill-rule="nonzero"/>
                    <use xlink:href="#gD4F92B52706F960662A427C33C793561" x="9.333333333333332" y="0" fill="#ffffff" fill-rule="nonzero"/>
                    <use xlink:href="#g17128DC925FD840645B4F1835B0245E0" x="18.666666666666664" y="0" fill="#ffffff" fill-rule="nonzero"/>
                    <use xlink:href="#gD4F92B52706F960662A427C33C793561" x="27.999999999999996" y="0" fill="#ffffff" fill-rule="nonzero"/>
                </g>
                <g class="typst-text" transform="matrix(1 0 0 -1 125 34.925000000000004)">
                    <use xlink:href="#g4CB96657F74F1790CD0C5EAC4FA3CDD3" x="0" y="0" fill="#a5d6ff" fill-rule="nonzero"/>
                    <use xlink:href="#g27EB430B3ADBA7D9D06B374356F83462" x="4.666666666666666" y="0" fill="#a5d6ff" fill-rule="nonzero"/>
                    <use xlink:href="#g307AB3830D2CA3843E1BCA6452801AA3" x="9.333333333333332" y="0" fill="#a5d6ff" fill-rule="nonzero"/>
                    <use xlink:href="#gABEF05BBF1B2C38F11DA0C9C9E72F613" x="13.999999999999998" y="0" fill="#a5d6ff" fill-rule="nonzero"/>
                    <use xlink:href="#g2CEE5D9F88CC7A39BE964692967C8775" x="23.33333333333333" y="0" fill="#a5d6ff" fill-rule="nonzero"/>
                    <use xlink:href="#g29053ED123F20980CEF18B936929F19C" x="32.66666666666666" y="0" fill="#a5d6ff" fill-rule="nonzero"/>
                    <use xlink:href="#g72776E3D1A75085B40F2C1ECD5F956C1" x="41.999999999999986" y="0" fill="#a5d6ff" fill-rule="nonzero"/>
                    <use xlink:href="#g7141784318F8D75695D1D0F9E7566C5" x="46.66666666666665" y="0" fill="#a5d6ff" fill-rule="nonzero"/>
                    <use xlink:href="#g77169F1ABD6086B3D7CD7D50200E5B7E" x="51.333333333333314" y="0" fill="#a5d6ff" fill-rule="nonzero"/>
                    <use xlink:href="#g845D9EA032B76329C43FB8D03FC9D802" x="55.99999999999998" y="0" fill="#a5d6ff" fill-rule="nonzero"/>
                    <use xlink:href="#g4CB96657F74F1790CD0C5EAC4FA3CDD3" x="60.66666666666664" y="0" fill="#a5d6ff" fill-rule="nonzero"/>
                    <use xlink:href="#g730B0364C9DD27CD3A26EA78FFFF9930" x="65.33333333333331" y="0" fill="#a5d6ff" fill-rule="nonzero"/>
                </g>
                <path class="typst-shape" fill="#21262d" fill-rule="nonzero" stroke="#8b949e" stroke-width="1" stroke-linecap="butt" stroke-linejoin="miter" stroke-miterlimit="4" transform="matrix(1 0 0 1 200 0)" d="M 0 0v 45 h 80 v -45 Z "/>
                <g class="typst-text" transform="matrix(1 0 0 -1 216.66666666666669 20.575)">
                    <use xlink:href="#gA616D9181F0B5B25BC8DEF42A2EA01DC" x="0" y="0" fill="#ffffff" fill-rule="nonzero"/>
                    <use xlink:href="#g5D52FC5AEA62DAAC7F7244E0492F308D" x="9.333333333333332" y="0" fill="#ffffff" fill-rule="nonzero"/>
                    <use xlink:href="#g91E8BDFB13DC5CC27F7FA635D859F618" x="18.666666666666664" y="0" fill="#ffffff" fill-rule="nonzero"/>
                    <use xlink:href="#g91E8BDFB13DC5CC27F7FA635D859F618" x="27.999999999999996" y="0" fill="#ffffff" fill-rule="nonzero"/>
                    <use xlink:href="#g78F52DD90568D9578996844C6AE65CE3" x="37.33333333333333" y="0" fill="#ffffff" fill-rule="nonzero"/>
                </g>
                <g class="typst-text" transform="matrix(1 0 0 -1 207.33333333333331 34.925000000000004)">
                    <use xlink:href="#gC8A497E166BBD6DD365534622E06434" x="0" y="0" fill="#a5d6ff" fill-rule="nonzero"/>
                    <use xlink:href="#gABEF05BBF1B2C38F11DA0C9C9E72F613" x="4.666666666666666" y="0" fill="#a5d6ff" fill-rule="nonzero"/>
                    <use xlink:href="#gDF2041A3F9E1EF30D79CBB61DE33CB45" x="9.333333333333332" y="0" fill="#a5d6ff" fill-rule="nonzero"/>
                    <use xlink:href="#gE957BFFD42BF539C878A9EBCF5E1AF15" x="13.999999999999998" y="0" fill="#a5d6ff" fill-rule="nonzero"/>
                    <use xlink:href="#g11C9589310DA9EFF5B21FA697A104A32" x="18.666666666666664" y="0" fill="#a5d6ff" fill-rule="nonzero"/>
                    <use xlink:href="#g2CEE5D9F88CC7A39BE964692967C8775" x="23.33333333333333" y="0" fill="#a5d6ff" fill-rule="nonzero"/>
                    <use xlink:href="#gF8F8700ADD6E36DC4BC2C07A702B0A92" x="27.999999999999993" y="0" fill="#a5d6ff" fill-rule="nonzero"/>
                    <use xlink:href="#g353FD8ACA29F179ABD0B73F51AED3A4E" x="32.66666666666666" y="0" fill="#a5d6ff" fill-rule="nonzero"/>
                    <use xlink:href="#g353FD8ACA29F179ABD0B73F51AED3A4E" x="37.33333333333332" y="0" fill="#a5d6ff" fill-rule="nonzero"/>
                    <use xlink:href="#g353FD8ACA29F179ABD0B73F51AED3A4E" x="41.999999999999986" y="0" fill="#a5d6ff" fill-rule="nonzero"/>
                    <use xlink:href="#g77169F1ABD6086B3D7CD7D50200E5B7E" x="46.66666666666665" y="0" fill="#a5d6ff" fill-rule="nonzero"/>
                    <use xlink:href="#g902CE73D04E9DC68E90DE0E14C4AA101" x="51.333333333333314" y="0" fill="#a5d6ff" fill-rule="nonzero"/>
                    <use xlink:href="#gE3116C6A8C9BB7676C10DC6A7FB06EF4" x="55.99999999999998" y="0" fill="#a5d6ff" fill-rule="nonzero"/>
                    <use xlink:href="#g98B84F84D4A20A8BB5D242D4EE9506FE" x="60.66666666666664" y="0" fill="#a5d6ff" fill-rule="nonzero"/>
                </g>
                <path class="typst-shape" fill="#21262d" fill-rule="nonzero" stroke="#8b949e" stroke-width="1" stroke-linecap="butt" stroke-linejoin="miter" stroke-miterlimit="4" transform="matrix(1 0 0 1 280 0)" d="M 0 0v 45 h 80 v -45 Z "/>
                <g class="typst-text" transform="matrix(1 0 0 -1 292 20.575)">
                    <use xlink:href="#g2FE057112EE727B52954A245A6C31778" x="0" y="0" fill="#ffffff" fill-rule="nonzero"/>
                    <use xlink:href="#g6B13A0E30D9B8B59C0AB17525358985D" x="9.333333333333332" y="0" fill="#ffffff" fill-rule="nonzero"/>
                    <use xlink:href="#g7E46E3C9FA9DC61B6697E6C0870D8E9D" x="18.666666666666664" y="0" fill="#ffffff" fill-rule="nonzero"/>
                    <use xlink:href="#g17128DC925FD840645B4F1835B0245E0" x="27.999999999999996" y="0" fill="#ffffff" fill-rule="nonzero"/>
                    <use xlink:href="#g7BC38CB7962394FA0052F2500D2B4352" x="46.66666666666666" y="0" fill="#ffffff" fill-rule="nonzero"/>
                </g>
                <g class="typst-text" transform="matrix(1 0 0 -1 292 34.925000000000004)">
                    <use xlink:href="#g7141784318F8D75695D1D0F9E7566C5" x="0" y="0" fill="#a5d6ff" fill-rule="nonzero"/>
                    <use xlink:href="#g730B0364C9DD27CD3A26EA78FFFF9930" x="4.666666666666666" y="0" fill="#a5d6ff" fill-rule="nonzero"/>
                    <use xlink:href="#gF8F8700ADD6E36DC4BC2C07A702B0A92" x="9.333333333333332" y="0" fill="#a5d6ff" fill-rule="nonzero"/>
                    <use xlink:href="#gABEF05BBF1B2C38F11DA0C9C9E72F613" x="13.999999999999998" y="0" fill="#a5d6ff" fill-rule="nonzero"/>
                    <use xlink:href="#g82339DD051CB78E87EF2DAA50147794B" x="18.666666666666664" y="0" fill="#a5d6ff" fill-rule="nonzero"/>
                    <use xlink:href="#g4CB96657F74F1790CD0C5EAC4FA3CDD3" x="27.999999999999993" y="0" fill="#a5d6ff" fill-rule="nonzero"/>
                    <use xlink:href="#g27EB430B3ADBA7D9D06B374356F83462" x="32.66666666666666" y="0" fill="#a5d6ff" fill-rule="nonzero"/>
                    <use xlink:href="#g307AB3830D2CA3843E1BCA6452801AA3" x="37.33333333333332" y="0" fill="#a5d6ff" fill-rule="nonzero"/>
                    <use xlink:href="#gABEF05BBF1B2C38F11DA0C9C9E72F613" x="41.999999999999986" y="0" fill="#a5d6ff" fill-rule="nonzero"/>
                    <use xlink:href="#g592826ED3386372600CC529EBDC3CB42" x="51.333333333333314" y="0" fill="#a5d6ff" fill-rule="nonzero"/>
                </g>
                <path class="typst-shape" fill="#21262d" fill-rule="nonzero" stroke="#8b949e" stroke-width="1" stroke-linecap="butt" stroke-linejoin="miter" stroke-miterlimit="4" transform="matrix(1 0 0 1 360 0)" d="M 0 0v 45 h 60 v -45 Z "/>
                <g class="typst-text" transform="matrix(1 0 0 -1 371.33333333333337 20.575)">
                    <use xlink:href="#g246204AD84D4AC10D5EFC9E93E90AE57" x="0" y="0" fill="#ffffff" fill-rule="nonzero"/>
                    <use xlink:href="#g246204AD84D4AC10D5EFC9E93E90AE57" x="9.333333333333332" y="0" fill="#ffffff" fill-rule="nonzero"/>
                    <use xlink:href="#g246204AD84D4AC10D5EFC9E93E90AE57" x="18.666666666666664" y="0" fill="#ffffff" fill-rule="nonzero"/>
                </g>
                <g class="typst-text" transform="matrix(1 0 0 -1 371.33333333333337 34.925000000000004)">
                    <use xlink:href="#g69C3F9E81FD2E89C3CCF8EA20850FB06" x="0" y="0" fill="#a5d6ff" fill-rule="nonzero"/>
                    <use xlink:href="#g7722609E1D5514D3BFB055D28E630E1A" x="4.666666666666666" y="0" fill="#a5d6ff" fill-rule="nonzero"/>
                    <use xlink:href="#g601661A73BC649B3D00B6732BFAE9E41" x="9.333333333333332" y="0" fill="#a5d6ff" fill-rule="nonzero"/>
                    <use xlink:href="#gC8A497E166BBD6DD365534622E06434" x="18.666666666666664" y="0" fill="#a5d6ff" fill-rule="nonzero"/>
                    <use xlink:href="#g2A3AD2375BB2FDBCF3B7AA87DCB41418" x="23.33333333333333" y="0" fill="#a5d6ff" fill-rule="nonzero"/>
                    <use xlink:href="#gC448A420E412BF9A44DB55F96D8A1569" x="27.999999999999993" y="0" fill="#a5d6ff" fill-rule="nonzero"/>
                    <use xlink:href="#g730B0364C9DD27CD3A26EA78FFFF9930" x="32.66666666666666" y="0" fill="#a5d6ff" fill-rule="nonzero"/>
                </g>
            </g>
        </g>
    </g>
    <defs id="glyph">
        <symbol id="g2FE057112EE727B52954A245A6C31778" overflow="visible">
            <path d="M 0 0m 0 1.1666666 v 1.1666666 h 2.3333333 v -1.1666666 h 3.5000002 v 1.1666666 h -2.3333335 v 1.1666667 h -2.3333335 v 1.1666665 h -1.1666666 v 1.166667 h 1.1666666 v 1.1666665 h 5.8333335 v -1.1666665 h 1.166667 v -1.166667 h -2.3333335 v 1.166667 h -3.5000002 v -1.166667 h 2.3333333 v -1.1666665 h 2.3333335 v -1.1666667 h 1.166667 v -1.1666666 h -1.166667 v -1.1666666 h -5.8333335 v 1.1666666 h -1.1666666 Z "/>
        </symbol>
        <symbol id="g6B13A0E30D9B8B59C0AB17525358985D" overflow="visible">
            <path d="M 0 0m 5.8333335 1.1666666 h 1.1666665 v -1.1666666 h -4.666667 v 1.1666666 h 1.1666667 v 8.166666 h -1.1666667 v 1.166667 h 3.5000002 v -9.333333 Z "/>
        </symbol>
        <symbol id="gD4F92B52706F960662A427C33C793561" overflow="visible">
            <path d="M 0 0m 0 1.1666666 v 2.3333335 h 1.1666666 v 1.1666665 h 3.5 v 1.166667 h -3.5 v 1.1666665 h 4.666667 v -1.1666665 h 1.1666665 v -4.666667 h 1.166667 v -1.1666666 h -2.3333335 v 1.1666666 h -1.166667 v 2.3333335 h -2.3333333 v -2.3333335 h 2.3333333 v -1.1666666 h -3.5 v 1.1666666 h -1.1666666 Z "/>
        </symbol>
        <symbol id="g84B980FE9700E68074725196FE201B23" overflow="visible">
            <path d="M 0 0m 0 9.333333 v 1.166667 h 3.5 v -3.5 h 2.3333335 v -1.1666665 h 1.1666665 v -1.166667 h 1.166667 v -3.5 h -1.166667 v -1.1666666 h -5.8333335 v 9.333333 h -1.1666666 Z m 3.5 -8.166666 h 2.3333335 v 3.5 h -1.166667 v 1.166667 h -1.1666665 v -4.666667 Z "/>
        </symbol>
        <symbol id="gEA141592ED784869B8281B9C264FCC9" overflow="visible">
            <path d="M 0 0v 1.1666666 h 1.1666666 v 8.166666 h -1.1666666 v 1.166667 h 3.5 v -4.6666665 h 1.1666665 v -1.166667 h -1.1666665 v -4.6666665 h -3.5 Z m 4.6666665 5.8333335 v 1.1666665 h 2.3333335 v -1.1666665 h 1.166667 v -5.8333335 h -2.3333335 v 5.8333335 h -1.166667 Z "/>
        </symbol>
        <symbol id="g91E8BDFB13DC5CC27F7FA635D859F618" overflow="visible">
            <path d="M 0 0m 0 1.1666666 v 4.666667 h 1.1666666 v 1.1666665 h 5.8333335 v -1.1666665 h 1.166667 v -2.3333335 h -5.833334 v -2.3333335 h 3.5000002 v 1.1666666 h 2.3333335 v -1.1666666 h -1.166667 v -1.1666666 h -5.8333335 v 1.1666666 h -1.1666666 Z m 2.3333333 4.666667 v -1.166667 h 3.5000002 v 1.166667 h -3.5000002 Z "/>
        </symbol>
        <symbol id="g78F52DD90568D9578996844C6AE65CE3" overflow="visible">
            <path d="M 0 0m 0 1.1666666 v 3.5 h 1.1666666 v 1.166667 h 1.1666666 v 1.1666665 h 2.3333333 v 2.333333 h -1.1666665 v 1.166667 h 3.5 v -9.333333 h 1.166667 v -1.1666666 h -2.3333335 v 1.1666666 h -1.166667 v 4.666667 h -1.1666665 v -1.166667 h -1.1666667 v -3.5 h 2.3333333 v -1.1666666 h -3.5 v 1.1666666 h -1.1666666 Z "/>
        </symbol>
        <symbol id="g5D52FC5AEA62DAAC7F7244E0492F308D" overflow="visible">
            <path d="M 0 0v 1.1666666 h 1.1666666 v 4.666667 h -1.1666666 v 1.1666665 h 2.3333333 v -1.1666665 h 1.1666667 v 1.1666665 h 3.5 v -1.1666665 h 1.166667 v -2.3333335 h -2.3333335 v 2.3333335 h -1.166667 v -1.166667 h -1.1666665 v -3.5 h 1.1666665 v -1.1666666 h -4.6666665 Z "/>
        </symbol>
        <symbol id="g72776E3D1A75085B40F2C1ECD5F956C1" overflow="visible">
            <path d="M 0 0m 1.1666666 0 v 0.5833333 h 0.5833334 v 2.3333335 h -0.5833334 v 0.58333325 h 1.7500001 v -2.9166667 h 0.58333325 v -0.5833333 h -2.3333335 Z m 0.5833334 4.0833335 v 1.1666665 h 1.1666667 v -1.1666665 h -1.1666667 Z "/>
        </symbol>
        <symbol id="g98B84F84D4A20A8BB5D242D4EE9506FE" overflow="visible">
            <path d="M 0 0m 0 0.5833333 v 1.75 h 0.5833333 v 0.5833335 h 0.5833333 v 0.58333325 h 1.1666666 v 1.1666665 h -0.58333325 v 0.5833335 h 1.75 v -4.6666665 h 0.5833335 v -0.5833333 h -1.1666667 v 0.5833333 h -0.5833335 v 2.3333335 h -0.58333325 v -0.5833335 h -0.5833334 v -1.75 h 1.1666666 v -0.5833333 h -1.75 v 0.5833333 h -0.5833333 Z "/>
        </symbol>
        <symbol id="gF5EE6A836E5594C6C4300FD1492DC88C" overflow="visible">
            <path d="M 0 0v 3.5 h 1.75 v -0.58333325 h 0.58333325 v 0.58333325 h 1.1666667 v -0.58333325 h 0.5833335 v -2.9166667 h -1.1666667 v 2.3333333 h -0.5833335 v -1.75 h -0.58333325 v 1.75 h -0.5833334 v -2.3333333 h -1.1666666 Z "/>
        </symbol>
        <symbol id="g2A3AD2375BB2FDBCF3B7AA87DCB41418" overflow="visible">
            <path d="M 0 0m 0 0.5833333 v 1.1666667 h 0.5833333 v 0.58333325 h 1.75 v 0.5833335 h -1.75 v 0.58333325 h 2.3333335 v -0.58333325 h 0.58333325 v -2.3333335 h 0.5833335 v -0.5833333 h -1.1666667 v 0.5833333 h -0.5833335 v 1.1666667 h -1.1666666 v -1.1666667 h 1.1666666 v -0.5833333 h -1.75 v 0.5833333 h -0.5833333 Z "/>
        </symbol>
        <symbol id="gABEF05BBF1B2C38F11DA0C9C9E72F613" overflow="visible">
            <path d="M 0 0m 0 2.9166667 v 0.58333325 h 1.1666666 v 1.1666665 h 0.5833334 v 0.5833335 h 0.58333325 v -1.75 h 1.1666667 v -0.58333325 h -1.1666667 v -2.3333335 h 0.5833335 v 0.5833333 h 1.1666667 v -0.5833333 h -0.5833335 v -0.5833333 h -1.75 v 0.5833333 h -0.5833334 v 2.3333335 h -1.1666666 Z "/>
        </symbol>
        <symbol id="gBB560E0332772C59C6C3A76EE988F066" overflow="visible">
            <path d="M 0 0m 0 0.5833333 v 2.3333335 h 0.5833333 v 0.58333325 h 2.9166667 v -0.58333325 h 0.5833335 v -0.5833335 h -1.1666667 v 0.5833335 h -1.7500001 v -2.3333335 h 1.7500001 v 0.5833333 h 1.1666667 v -0.5833333 h -0.5833335 v -0.5833333 h -2.9166667 v 0.5833333 h -0.5833333 Z "/>
        </symbol>
        <symbol id="gE3116C6A8C9BB7676C10DC6A7FB06EF4" overflow="visible">
            <path d="M 0 0v 0.5833333 h 0.5833333 v 4.083333 h -0.5833333 v 0.5833335 h 1.75 v -2.3333333 h 0.58333325 v -0.5833335 h -0.58333325 v -2.3333333 h -1.75 Z m 2.3333333 2.9166667 v 0.58333325 h 1.1666667 v -0.58333325 h 0.5833335 v -2.9166667 h -1.1666667 v 2.9166667 h -0.5833335 Z "/>
        </symbol>
        <symbol id="g730B0364C9DD27CD3A26EA78FFFF9930" overflow="visible">
            <path d="M 0 0m 0 0.5833333 v 2.3333335 h 0.5833333 v 0.58333325 h 2.9166667 v -0.58333325 h 0.5833335 v -1.1666667 h -2.916667 v -1.1666667 h 1.7500001 v 0.5833333 h 1.1666667 v -0.5833333 h -0.5833335 v -0.5833333 h -2.9166667 v 0.5833333 h -0.5833333 Z m 1.1666666 2.3333335 v -0.5833335 h 1.7500001 v 0.5833335 h -1.7500001 Z "/>
        </symbol>
        <symbol id="g2CEE5D9F88CC7A39BE964692967C8775" overflow="visible">
            <path d="M 0 0m 0 1.1666666 v 2.916667 h 0.5833333 v 0.583333 h 0.5833333 v 0.5833335 h 1.7500001 v -0.5833335 h 0.58333325 v -0.583333 h 0.5833335 v -2.916667 h -0.5833335 v -0.5833333 h -0.58333325 v -0.5833333 h -1.7500001 v 0.5833333 h -0.5833333 v 0.5833333 h -0.5833333 Z m 1.1666666 0 h 0.5833334 v -0.5833333 h 0.58333325 v 0.5833333 h 0.5833335 v 2.916667 h -0.5833335 v 0.583333 h -0.58333325 v -0.583333 h -0.5833334 v -2.916667 Z m 1.1666666 1.7500001 v -0.5833335 h -0.58333325 v 0.5833335 h 0.58333325 Z "/>
        </symbol>
        <symbol id="gF8F8700ADD6E36DC4BC2C07A702B0A92" overflow="visible">
            <path d="M 0 0v 0.5833333 h 0.5833333 v 0.5833333 h 0.5833333 v 1.1666666 h -0.5833333 v 0.5833335 h -0.5833333 v 0.58333325 h 1.1666666 v -0.58333325 h 0.5833334 v -0.5833335 h 0.58333325 v 0.5833335 h 0.5833335 v 0.58333325 h 1.1666667 v -0.58333325 h -0.5833335 v -0.5833335 h -0.58333325 v -1.1666666 h 0.58333325 v -0.5833333 h 0.5833335 v -0.5833333 h -1.1666667 v 0.5833333 h -0.5833335 v 0.5833333 h -0.58333325 v -0.5833333 h -0.5833334 v -0.5833333 h -1.1666666 Z "/>
        </symbol>
        <symbol id="gEF807E07F2940DAF0D9C597FF06BCFA0" overflow="visible">
            <path d="M 0 0m 0 0.5833333 v 0.5833333 h 1.1666666 v -0.5833333 h 1.7500001 v 1.75 h -2.9166667 v 2.9166667 h 4.0833335 v -0.5833335 h -2.916667 v -1.7499998 h 2.3333335 v -0.5833335 h 0.5833335 v -1.75 h -0.5833335 v -0.5833333 h -2.9166667 v 0.5833333 h -0.5833333 Z "/>
        </symbol>
        <symbol id="g4FCCE4C7BC6CB2E637266A50B1ACF2E0" overflow="visible">
            <path d="M 0 0m 0.5833333 0 v 0.5833333 h 1.1666667 v 2.9166667 h -1.1666667 v 0.5833335 h 0.5833333 v 0.583333 h 0.5833334 v 0.5833335 h 1.1666667 v -4.6666665 h 1.1666667 v -0.5833333 h -3.5000002 Z "/>
        </symbol>
        <symbol id="gBAB823DE83ED8D050F3E87C10F171AF7" overflow="visible">
            <path d="M 0 0v 3.5 h 0.5833333 v 0.5833335 h 0.5833333 v 0.583333 h 0.5833334 v 0.5833335 h 0.58333325 v -0.5833335 h 0.5833335 v -0.583333 h 0.58333325 v -0.5833335 h 0.5833335 v -3.5 h -1.1666667 v 1.75 h -1.7500001 v -1.75 h -1.1666666 Z m 1.1666666 2.3333333 h 1.7500001 v 1.1666667 h -0.5833335 v 0.5833335 h -0.58333325 v -0.5833335 h -0.5833334 v -1.1666667 Z "/>
        </symbol>
        <symbol id="g601661A73BC649B3D00B6732BFAE9E41" overflow="visible">
            <path d="M 0 0v 0.5833333 h 0.5833333 v 4.083333 h -0.5833333 v 0.5833335 h 3.5 v -0.5833335 h 0.5833335 v -1.7499998 h -0.5833335 v -0.5833335 h 0.5833335 v -1.75 h -0.5833335 v -0.5833333 h -3.5 Z m 1.75 0.5833333 h 1.1666667 v 1.75 h -1.1666667 v -1.75 Z m 0 2.3333335 h 1.1666667 v 1.7499998 h -1.1666667 v -1.7499998 Z "/>
        </symbol>
        <symbol id="g17128DC925FD840645B4F1835B0245E0" overflow="visible">
            <path d="M 0 0m 0 5.8333335 v 1.1666665 h 2.3333333 v 2.333333 h 1.1666667 v 1.166667 h 1.1666665 v -3.5 h 2.3333335 v -1.1666665 h -2.3333335 v -4.666667 h 1.166667 v 1.1666666 h 2.3333335 v -1.1666666 h -1.166667 v -1.1666666 h -3.5 v 1.1666666 h -1.1666667 v 4.666667 h -2.3333333 Z "/>
        </symbol>
        <symbol id="g4CB96657F74F1790CD0C5EAC4FA3CDD3" overflow="visible">
            <path d="M 0 0m 0 0.5833333 v 0.5833333 h 1.1666666 v -0.5833333 h 1.7500001 v 0.5833333 h -1.1666667 v 0.5833334 h -1.1666667 v 0.58333325 h -0.5833333 v 0.5833335 h 0.5833333 v 0.58333325 h 2.9166667 v -0.58333325 h 0.5833335 v -0.5833335 h -1.1666667 v 0.5833335 h -1.7500001 v -0.5833335 h 1.1666666 v -0.58333325 h 1.1666667 v -0.5833334 h 0.5833335 v -0.5833333 h -0.5833335 v -0.5833333 h -2.9166667 v 0.5833333 h -0.5833333 Z "/>
        </symbol>
        <symbol id="g27EB430B3ADBA7D9D06B374356F83462" overflow="visible">
            <path d="M 0 0m 2.9166667 0.5833333 h 0.58333325 v -0.5833333 h -2.3333335 v 0.5833333 h 0.5833334 v 4.083333 h -0.5833334 v 0.5833335 h 1.7500001 v -4.6666665 Z "/>
        </symbol>
        <symbol id="g307AB3830D2CA3843E1BCA6452801AA3" overflow="visible">
            <path d="M 0 0m 0 0.5833333 v 2.3333335 h 0.5833333 v 0.58333325 h 2.9166667 v -0.58333325 h 0.5833335 v -2.3333335 h -0.5833335 v -0.5833333 h -2.9166667 v 0.5833333 h -0.5833333 Z m 1.1666666 0 h 1.7500001 v 2.3333335 h -1.7500001 v -2.3333335 Z "/>
        </symbol>
        <symbol id="g29053ED123F20980CEF18B936929F19C" overflow="visible">
            <path d="M 0 0m 2.9166667 0 h -1.1666667 v 2.3333333 h 1.1666667 v -2.3333333 Z m 0 2.9166667 h -1.1666667 v 2.3333333 h 1.1666667 v -2.3333333 Z "/>
        </symbol>
        <symbol id="g7141784318F8D75695D1D0F9E7566C5" overflow="visible">
            <path d="M 0 0m 0 2.9166667 v 0.58333325 h 1.1666666 v -0.58333325 h 0.5833334 v -2.9166667 h -1.1666667 v 2.9166667 h -0.5833333 Z m 1.75 0 v 0.58333325 h 1.75 v -0.58333325 h 0.5833335 v -2.9166667 h -1.1666667 v 2.9166667 h -1.1666667 Z "/>
        </symbol>
        <symbol id="g77169F1ABD6086B3D7CD7D50200E5B7E" overflow="visible">
            <path d="M 0 0m 0 2.3333333 v 0.5833335 h 4.0833335 v -0.5833335 h -4.0833335 Z "/>
        </symbol>
        <symbol id="g845D9EA032B76329C43FB8D03FC9D802" overflow="visible">
            <path d="M 0 0m 0 0.5833333 v 2.9166667 h 1.1666666 v -2.9166667 h 1.1666666 v -0.5833333 h -1.75 v 0.5833333 h -0.5833333 Z m 2.3333333 0 v 2.9166667 h 1.1666667 v -2.9166667 h 0.5833335 v -0.5833333 h -1.1666667 v 0.5833333 h -0.5833335 Z "/>
        </symbol>
        <symbol id="gA616D9181F0B5B25BC8DEF42A2EA01DC" overflow="visible">
            <path d="M 0 0v 1.1666666 h 1.1666666 v 3.5 h -1.1666666 v 1.166667 h 1.1666666 v 3.4999995 h 1.1666666 v 1.166667 h 3.5000002 v -1.166667 h 1.1666665 v -2.333333 h -1.1666665 v 1.166667 h -1.166667 v 1.166666 h -1.1666665 v -3.4999995 h 1.1666665 v -1.166667 h -1.1666665 v -3.5 h 1.1666665 v -1.1666666 h -4.6666665 Z "/>
        </symbol>
        <symbol id="gC8A497E166BBD6DD365534622E06434" overflow="visible">
            <path d="M 0 0m 0 -1.1666666 v 0.5833333 h 0.5833333 v 3.5 h -0.5833333 v 0.58333325 h 1.1666666 v -0.58333325 h 0.5833334 v -1.7500001 h 1.1666667 v 1.7500001 h -1.1666667 v 0.58333325 h 1.75 v -0.58333325 h 0.5833335 v -1.7500001 h -0.5833335 v -0.5833333 h -1.75 v -1.1666666 h 0.58333325 v -0.5833333 h -2.3333333 Z "/>
        </symbol>
        <symbol id="gDF2041A3F9E1EF30D79CBB61DE33CB45" overflow="visible">
            <path d="M 0 0v 0.5833333 h 0.5833333 v 2.3333335 h -0.5833333 v 0.58333325 h 1.1666666 v -0.58333325 h 0.5833334 v 0.58333325 h 1.75 v -0.58333325 h 0.5833335 v -1.1666667 h -1.1666667 v 1.1666667 h -0.5833335 v -0.5833335 h -0.58333325 v -1.75 h 0.58333325 v -0.5833333 h -2.3333333 Z "/>
        </symbol>
        <symbol id="gE957BFFD42BF539C878A9EBCF5E1AF15" overflow="visible">
            <path d="M 0 0m 0 0.5833333 v 1.75 h 0.5833333 v 0.5833335 h 0.5833333 v 0.58333325 h -0.5833333 v 1.1666665 h 0.5833333 v 0.5833335 h 1.7500001 v -0.5833335 h 0.58333325 v -1.1666665 h -0.58333325 v -0.58333325 h -0.5833335 v -0.5833335 h 0.5833335 v 0.5833335 h 1.1666667 v -0.5833335 h -0.5833335 v -1.75 h 0.5833335 v -0.5833333 h -1.1666667 v 0.5833333 h -0.5833335 v 1.1666667 h -0.58333325 v 0.58333325 h -0.5833334 v -1.75 h 1.1666666 v -0.5833333 h -1.75 v 0.5833333 h -0.5833333 Z m 2.3333333 2.9166667 v 1.1666665 h -0.58333325 v -1.1666665 h 0.58333325 Z "/>
        </symbol>
        <symbol id="g11C9589310DA9EFF5B21FA697A104A32" overflow="visible">
            <path d="M 0 0m 0 4.0833335 v 0.583333 h 0.5833333 v 0.5833335 h 1.75 v -0.5833335 h 0.5833335 v 0.5833335 h 1.1666667 v -0.5833335 h -0.5833335 v -0.583333 h -1.75 v 0.583333 h -0.5833334 v -0.583333 h -1.1666666 Z "/>
        </symbol>
        <symbol id="g353FD8ACA29F179ABD0B73F51AED3A4E" overflow="visible">
            <path d="M 0 0v 0.5833333 h 0.5833333 v 4.083333 h -0.5833333 v 0.5833335 h 4.0833335 v -1.75 h -0.5833335 v 0.5833335 h -0.58333325 v 0.583333 h -1.1666667 v -1.7499998 h 0.58333325 v 0.58333325 h 0.5833335 v -1.75 h -0.5833335 v 0.58333325 h -0.58333325 v -1.75 h 0.58333325 v -0.5833333 h -2.3333333 Z "/>
        </symbol>
        <symbol id="g902CE73D04E9DC68E90DE0E14C4AA101" overflow="visible">
            <path d="M 0 0m 1.1666666 0.5833333 v 0.5833333 h 0.5833334 v 0.5833334 h 0.58333325 v 0.58333325 h 0.5833335 v 0.5833335 h -0.5833335 v 0.58333325 h -0.58333325 v 0.5833335 h -0.5833334 v 0.583333 h -0.5833333 v 0.5833335 h 1.1666667 v -0.5833335 h 0.58333325 v -0.583333 h 0.5833335 v -0.5833335 h 0.58333325 v -0.58333325 h 0.5833335 v -0.5833335 h -0.5833335 v -0.58333325 h -0.58333325 v -0.5833334 h -0.5833335 v -0.5833333 h -0.58333325 v -0.5833333 h -1.1666667 v 0.5833333 h 0.5833333 Z "/>
        </symbol>
        <symbol id="g7E46E3C9FA9DC61B6697E6C0870D8E9D" overflow="visible">
            <path d="M 0 0m 0 1.1666666 v 4.666667 h 1.1666666 v 1.1666665 h 5.8333335 v -1.1666665 h 1.166667 v -4.666667 h -1.166667 v -1.1666666 h -5.8333335 v 1.1666666 h -1.1666666 Z m 2.3333333 0 h 3.5000002 v 4.666667 h -3.5000002 v -4.666667 Z "/>
        </symbol>
        <symbol id="g7BC38CB7962394FA0052F2500D2B4352" overflow="visible">
            <path d="M 0 0m 0 2.3333333 h 1.1666666 v 1.1666667 h 1.1666666 v 1.1666665 h 1.1666667 v 1.166667 h 1.1666665 v 1.1666665 h 1.166667 v 2.333333 h -3.5000002 v -1.166666 h -2.3333333 v 1.166666 h 1.1666666 v 1.166667 h 5.8333335 v -1.166667 h 1.166667 v -2.333333 h -1.166667 v -1.1666665 h -1.1666665 v -1.166667 h -1.166667 v -1.1666665 h -1.1666665 v -1.1666667 h -1.1666667 v -1.1666666 h 3.5000002 v 1.1666666 h 2.3333335 v -2.3333333 h -8.166667 v 2.3333333 Z "/>
        </symbol>
        <symbol id="g82339DD051CB78E87EF2DAA50147794B" overflow="visible">
            <path d="M 0 0m 2.9166667 0.5833333 h -1.1666667 v 1.1666667 h 1.1666667 v -1.1666667 Z m 0 2.9166667 h -1.1666667 v 1.1666665 h 1.1666667 v -1.1666665 Z "/>
        </symbol>
        <symbol id="g592826ED3386372600CC529EBDC3CB42" overflow="visible">
            <path d="M 0 0m 0 0.5833333 v 0.5833333 h 1.1666666 v -0.5833333 h 1.7500001 v 1.75 h -1.7500001 v 0.5833335 h 1.7500001 v 1.7499998 h -1.7500001 v -0.583333 h -1.1666666 v 0.583333 h 0.5833333 v 0.5833335 h 2.9166667 v -0.5833335 h 0.5833335 v -1.7499998 h -0.5833335 v -0.5833335 h 0.5833335 v -1.75 h -0.5833335 v -0.5833333 h -2.9166667 v 0.5833333 h -0.5833333 Z "/>
        </symbol>
        <symbol id="g246204AD84D4AC10D5EFC9E93E90AE57" overflow="visible">
            <path d="M 0 0m 5.8333335 2.3333333 v -2.3333333 h -2.3333335 v 2.3333333 h 2.3333335 Z "/>
        </symbol>
        <symbol id="g69C3F9E81FD2E89C3CCF8EA20850FB06" overflow="visible">
            <path d="M 0 0m 0 2.9166667 h 0.5833333 v 0.58333325 h 0.5833333 v 0.5833335 h 0.5833334 v 0.583333 h 0.58333325 v 0.5833335 h 1.1666667 v -2.9166667 h 0.5833335 v -0.58333325 h -0.5833335 v -1.1666667 h 0.5833335 v -0.5833333 h -2.3333335 v 0.5833333 h 0.58333325 v 1.1666667 h -2.3333333 v 1.1666667 Z m 1.1666666 0 v -0.5833335 h 1.1666666 v 1.1666667 h -0.58333325 v -0.58333325 h -0.5833334 Z "/>
        </symbol>
        <symbol id="g7722609E1D5514D3BFB055D28E630E1A" overflow="visible">
            <path d="M 0 0v 0.5833333 h 0.5833333 v 4.083333 h -0.5833333 v 0.5833335 h 1.75 v -2.3333333 h 0.58333325 v 1.1666667 h 0.5833335 v 1.1666665 h 1.1666667 v -1.1666665 h -0.5833335 v -1.1666667 h -0.58333325 v -0.5833335 h 0.58333325 v -1.1666666 h 0.5833335 v -1.1666666 h -1.1666667 v 1.1666666 h -0.5833335 v 1.1666666 h -0.58333325 v -2.3333333 h -1.75 Z "/>
        </symbol>
        <symbol id="gC448A420E412BF9A44DB55F96D8A1569" overflow="visible">
            <path d="M 0 0m 0 -0.5833333 v 0.5833333 h 1.1666666 v -0.5833333 h 1.1666666 v 1.1666666 h -1.75 v 0.5833333 h -0.5833333 v 1.7500001 h 0.5833333 v 0.58333325 h 1.75 v -0.58333325 h -1.1666666 v -1.7500001 h 1.1666666 v 1.7500001 h 0.5833335 v 0.58333325 h 1.1666667 v -0.58333325 h -0.5833335 v -3.5 h -0.58333325 v -0.5833333 h -2.3333335 v 0.5833333 h -0.5833333 Z "/>
        </symbol>
    </defs>
</svg>
