<svg class="typst-doc" viewBox="0 0 556 77" width="556pt" height="77pt" xmlns="http://www.w3.org/2000/svg" xmlns:xlink="http://www.w3.org/1999/xlink" xmlns:h5="http://www.w3.org/1999/xhtml">
    <g>
        <g class="typst-group" transform="matrix(1 0 0 1 16 16)">
            <g>
                <g class="typst-group">
                    <g>
                        <g class="typst-group">
                            <g>
                                <path class="typst-shape" fill="#da3633" fill-rule="nonzero" stroke="#8b949e" stroke-width="1" stroke-linecap="butt" stroke-linejoin="miter" stroke-miterlimit="4" d="M 0 0v 45 h 60 v -45 Z "/>
                                <g class="typst-text" transform="matrix(1 0 0 -1 16 20.575)">
                                    <use xlink:href="#gCF5BB21970CF4736E00452CDE75A23F6" x="0" y="0" fill="#ffffff" fill-rule="nonzero"/>
                                    <use xlink:href="#gD4F92B52706F960662A427C33C793561" x="9.333333333333332" y="0" fill="#ffffff" fill-rule="nonzero"/>
                                    <use xlink:href="#g78F52DD90568D9578996844C6AE65CE3" x="18.666666666666664" y="0" fill="#ffffff" fill-rule="nonzero"/>
                                </g>
                                <g class="typst-text" transform="matrix(1 0 0 -1 11.333333333333334 34.925000000000004)">
                                    <use xlink:href="#g7B84CBA4DE0DE8F194D99F7B5AC86DF9" x="0" y="0" fill="#a5d6ff" fill-rule="nonzero"/>
                                    <use xlink:href="#g2A3AD2375BB2FDBCF3B7AA87DCB41418" x="4.666666666666666" y="0" fill="#a5d6ff" fill-rule="nonzero"/>
                                    <use xlink:href="#gBB560E0332772C59C6C3A76EE988F066" x="9.333333333333332" y="0" fill="#a5d6ff" fill-rule="nonzero"/>
                                    <use xlink:href="#g9AAB665279A336A07328C3B66AF5528" x="13.999999999999998" y="0" fill="#a5d6ff" fill-rule="nonzero"/>
                                    <use xlink:href="#gD12300C58EBD3DFCAB5863FD6FBA05F9" x="18.666666666666664" y="0" fill="#a5d6ff" fill-rule="nonzero"/>
                                    <use xlink:href="#gC8A497E166BBD6DD365534622E06434" x="23.33333333333333" y="0" fill="#a5d6ff" fill-rule="nonzero"/>
                                    <use xlink:href="#gABEF05BBF1B2C38F11DA0C9C9E72F613" x="27.999999999999993" y="0" fill="#a5d6ff" fill-rule="nonzero"/>
                                    <use xlink:href="#gDF2041A3F9E1EF30D79CBB61DE33CB45" x="32.66666666666666" y="0" fill="#a5d6ff" fill-rule="nonzero"/>
                                </g>
                                <path class="typst-shape" fill="#238636" fill-rule="nonzero" stroke="#8b949e" stroke-width="1" stroke-linecap="butt" stroke-linejoin="miter" stroke-miterlimit="4" transform="matrix(1 0 0 1 60 0)" d="M 0 0v 45 h 30 v -45 Z "/>
                                <g class="typst-text" transform="matrix(1 0 0 -1 70.33333333333334 20.575)">
                                    <use xlink:href="#gEA141592ED784869B8281B9C264FCC9" x="0" y="0" fill="#ffffff" fill-rule="nonzero"/>
                                </g>
                                <g class="typst-text" transform="matrix(1 0 0 -1 65.66666666666666 34.925000000000004)">
                                    <use xlink:href="#g4CB96657F74F1790CD0C5EAC4FA3CDD3" x="0" y="0" fill="#a5d6ff" fill-rule="nonzero"/>
                                    <use xlink:href="#g72776E3D1A75085B40F2C1ECD5F956C1" x="4.666666666666666" y="0" fill="#a5d6ff" fill-rule="nonzero"/>
                                    <use xlink:href="#gE95C3AD6C693D72DBE71240E1960B193" x="9.333333333333332" y="0" fill="#a5d6ff" fill-rule="nonzero"/>
                                    <use xlink:href="#g730B0364C9DD27CD3A26EA78FFFF9930" x="13.999999999999998" y="0" fill="#a5d6ff" fill-rule="nonzero"/>
                                </g>
                                <path class="typst-shape" fill="#1f6feb" fill-rule="nonzero" stroke="#8b949e" stroke-width="1" stroke-linecap="butt" stroke-linejoin="miter" stroke-miterlimit="4" transform="matrix(1 0 0 1 90 0)" d="M 0 0v 45 h 130 v -45 Z "/>
                                <g class="typst-text" transform="matrix(1 0 0 -1 136.33333333333334 20.575)">
                                    <use xlink:href="#g78F52DD90568D9578996844C6AE65CE3" x="0" y="0" fill="#ffffff" fill-rule="nonzero"/>
                                    <use xlink:href="#gD4F92B52706F960662A427C33C793561" x="9.333333333333332" y="0" fill="#ffffff" fill-rule="nonzero"/>
                                    <use xlink:href="#g17128DC925FD840645B4F1835B0245E0" x="18.666666666666664" y="0" fill="#ffffff" fill-rule="nonzero"/>
                                    <use xlink:href="#gD4F92B52706F960662A427C33C793561" x="27.999999999999996" y="0" fill="#ffffff" fill-rule="nonzero"/>
                                </g>
                                <g class="typst-text" transform="matrix(1 0 0 -1 131.66666666666666 34.925000000000004)">
                                    <use xlink:href="#g2A3AD2375BB2FDBCF3B7AA87DCB41418" x="0" y="0" fill="#a5d6ff" fill-rule="nonzero"/>
                                    <use xlink:href="#g27EB430B3ADBA7D9D06B374356F83462" x="4.666666666666666" y="0" fill="#a5d6ff" fill-rule="nonzero"/>
                                    <use xlink:href="#g72776E3D1A75085B40F2C1ECD5F956C1" x="9.333333333333332" y="0" fill="#a5d6ff" fill-rule="nonzero"/>
                                    <use xlink:href="#gC448A420E412BF9A44DB55F96D8A1569" x="13.999999999999998" y="0" fill="#a5d6ff" fill-rule="nonzero"/>
                                    <use xlink:href="#g7141784318F8D75695D1D0F9E7566C5" x="18.666666666666664" y="0" fill="#a5d6ff" fill-rule="nonzero"/>
                                    <use xlink:href="#g730B0364C9DD27CD3A26EA78FFFF9930" x="23.33333333333333" y="0" fill="#a5d6ff" fill-rule="nonzero"/>
                                    <use xlink:href="#g98B84F84D4A20A8BB5D242D4EE9506FE" x="27.999999999999993" y="0" fill="#a5d6ff" fill-rule="nonzero"/>
                                    <use xlink:href="#g77169F1ABD6086B3D7CD7D50200E5B7E" x="37.33333333333332" y="0" fill="#a5d6ff" fill-rule="nonzero"/>
                                    <use xlink:href="#g902CE73D04E9DC68E90DE0E14C4AA101" x="41.999999999999986" y="0" fill="#a5d6ff" fill-rule="nonzero"/>
                                </g>
                                <path class="typst-shape" fill="#238636" fill-rule="nonzero" stroke="#8b949e" stroke-width="1" stroke-linecap="butt" stroke-linejoin="miter" stroke-miterlimit="4" transform="matrix(1 0 0 1 220 0)" d="M 0 0v 45 h 30 v -45 Z "/>
                                <g class="typst-text" transform="matrix(1 0 0 -1 230.33333333333331 20.575)">
                                    <use xlink:href="#gA616D9181F0B5B25BC8DEF42A2EA01DC" x="0" y="0" fill="#ffffff" fill-rule="nonzero"/>
                                </g>
                                <g class="typst-text" transform="matrix(1 0 0 -1 225.66666666666669 34.925000000000004)">
                                    <use xlink:href="#g4CB96657F74F1790CD0C5EAC4FA3CDD3" x="0" y="0" fill="#a5d6ff" fill-rule="nonzero"/>
                                    <use xlink:href="#g72776E3D1A75085B40F2C1ECD5F956C1" x="4.666666666666666" y="0" fill="#a5d6ff" fill-rule="nonzero"/>
                                    <use xlink:href="#gE95C3AD6C693D72DBE71240E1960B193" x="9.333333333333332" y="0" fill="#a5d6ff" fill-rule="nonzero"/>
                                    <use xlink:href="#g730B0364C9DD27CD3A26EA78FFFF9930" x="13.999999999999998" y="0" fill="#a5d6ff" fill-rule="nonzero"/>
                                </g>
                            </g>
                        </g>
                    </g>
                </g>
                <path class="typst-shape" fill="none" stroke="#8b949e" stroke-width="1" stroke-linecap="butt" stroke-linejoin="miter" stroke-miterlimit="4" transform="matrix(1 0 0 1 262 0)" d="M 0 0l 0.0000000000000027554554 45 "/>
                <g class="typst-group" transform="matrix(1 0 0 1 274 0)">
                    <g>
                        <g class="typst-group">
                            <g>
                                <path class="typst-shape" fill="#238636" fill-rule="nonzero" stroke="#8b949e" stroke-width="1" stroke-linecap="butt" stroke-linejoin="miter" stroke-miterlimit="4" d="M 0 0v 45 h 30 v -45 Z "/>
                                <g class="typst-text" transform="matrix(1 0 0 -1 10.333333333333334 20.575)">
                                    <use xlink:href="#gEA141592ED784869B8281B9C264FCC9" x="0" y="0" fill="#ffffff" fill-rule="nonzero"/>
                                </g>
                                <g class="typst-text" transform="matrix(1 0 0 -1 5.666666666666667 34.925000000000004)">
                                    <use xlink:href="#g4CB96657F74F1790CD0C5EAC4FA3CDD3" x="0" y="0" fill="#a5d6ff" fill-rule="nonzero"/>
                                    <use xlink:href="#g72776E3D1A75085B40F2C1ECD5F956C1" x="4.666666666666666" y="0" fill="#a5d6ff" fill-rule="nonzero"/>
                                    <use xlink:href="#gE95C3AD6C693D72DBE71240E1960B193" x="9.333333333333332" y="0" fill="#a5d6ff" fill-rule="nonzero"/>
                                    <use xlink:href="#g730B0364C9DD27CD3A26EA78FFFF9930" x="13.999999999999998" y="0" fill="#a5d6ff" fill-rule="nonzero"/>
                                </g>
                                <path class="typst-shape" fill="#21262d" fill-rule="nonzero" stroke="#8b949e" stroke-width="1" stroke-linecap="butt" stroke-linejoin="miter" stroke-miterlimit="4" transform="matrix(1 0 0 1 30 0)" d="M 0 0v 45 h 150 v -45 Z "/>
                                <g class="typst-text" transform="matrix(1 0 0 -1 63 20.575)">
                                    <use xlink:href="#g17128DC925FD840645B4F1835B0245E0" x="0" y="0" fill="#ffffff" fill-rule="nonzero"/>
                                    <use xlink:href="#g5D52FC5AEA62DAAC7F7244E0492F308D" x="9.333333333333332" y="0" fill="#ffffff" fill-rule="nonzero"/>
                                    <use xlink:href="#g91E8BDFB13DC5CC27F7FA635D859F618" x="18.666666666666664" y="0" fill="#ffffff" fill-rule="nonzero"/>
                                    <use xlink:href="#g91E8BDFB13DC5CC27F7FA635D859F618" x="27.999999999999996" y="0" fill="#ffffff" fill-rule="nonzero"/>
                                    <use xlink:href="#g42178610C96C37130842B8EFA86974BE" x="46.66666666666666" y="0" fill="#ffffff" fill-rule="nonzero"/>
                                    <use xlink:href="#g7E46E3C9FA9DC61B6697E6C0870D8E9D" x="55.999999999999986" y="0" fill="#ffffff" fill-rule="nonzero"/>
                                    <use xlink:href="#g78F52DD90568D9578996844C6AE65CE3" x="65.33333333333331" y="0" fill="#ffffff" fill-rule="nonzero"/>
                                    <use xlink:href="#g91E8BDFB13DC5CC27F7FA635D859F618" x="74.66666666666664" y="0" fill="#ffffff" fill-rule="nonzero"/>
                                </g>
                                <g class="typst-text" transform="matrix(1 0 0 -1 49.00000000000002 34.925000000000004)">
                                    <use xlink:href="#gC8A497E166BBD6DD365534622E06434" x="0" y="0" fill="#a5d6ff" fill-rule="nonzero"/>
                                    <use xlink:href="#g2A3AD2375BB2FDBCF3B7AA87DCB41418" x="4.666666666666666" y="0" fill="#a5d6ff" fill-rule="nonzero"/>
                                    <use xlink:href="#gDF2041A3F9E1EF30D79CBB61DE33CB45" x="9.333333333333332" y="0" fill="#a5d6ff" fill-rule="nonzero"/>
                                    <use xlink:href="#g730B0364C9DD27CD3A26EA78FFFF9930" x="13.999999999999998" y="0" fill="#a5d6ff" fill-rule="nonzero"/>
                                    <use xlink:href="#g7141784318F8D75695D1D0F9E7566C5" x="18.666666666666664" y="0" fill="#a5d6ff" fill-rule="nonzero"/>
                                    <use xlink:href="#gABEF05BBF1B2C38F11DA0C9C9E72F613" x="23.33333333333333" y="0" fill="#a5d6ff" fill-rule="nonzero"/>
                                    <use xlink:href="#g567877D3CCE48BDA366A4E85F362FDBB" x="27.999999999999993" y="0" fill="#a5d6ff" fill-rule="nonzero"/>
                                    <use xlink:href="#g27EB430B3ADBA7D9D06B374356F83462" x="37.33333333333332" y="0" fill="#a5d6ff" fill-rule="nonzero"/>
                                    <use xlink:href="#g730B0364C9DD27CD3A26EA78FFFF9930" x="41.999999999999986" y="0" fill="#a5d6ff" fill-rule="nonzero"/>
                                    <use xlink:href="#g706C70AEEFADA44366EF1F11D5B5171B" x="46.66666666666665" y="0" fill="#a5d6ff" fill-rule="nonzero"/>
                                    <use xlink:href="#gABEF05BBF1B2C38F11DA0C9C9E72F613" x="51.333333333333314" y="0" fill="#a5d6ff" fill-rule="nonzero"/>
                                    <use xlink:href="#g567877D3CCE48BDA366A4E85F362FDBB" x="55.99999999999998" y="0" fill="#a5d6ff" fill-rule="nonzero"/>
                                    <use xlink:href="#gDF2041A3F9E1EF30D79CBB61DE33CB45" x="65.33333333333331" y="0" fill="#a5d6ff" fill-rule="nonzero"/>
                                    <use xlink:href="#g72776E3D1A75085B40F2C1ECD5F956C1" x="69.99999999999999" y="0" fill="#a5d6ff" fill-rule="nonzero"/>
                                    <use xlink:href="#gC448A420E412BF9A44DB55F96D8A1569" x="74.66666666666666" y="0" fill="#a5d6ff" fill-rule="nonzero"/>
                                    <use xlink:href="#gE3116C6A8C9BB7676C10DC6A7FB06EF4" x="79.33333333333333" y="0" fill="#a5d6ff" fill-rule="nonzero"/>
                                    <use xlink:href="#gABEF05BBF1B2C38F11DA0C9C9E72F613" x="84" y="0" fill="#a5d6ff" fill-rule="nonzero"/>
                                    <use xlink:href="#g567877D3CCE48BDA366A4E85F362FDBB" x="88.66666666666667" y="0" fill="#a5d6ff" fill-rule="nonzero"/>
                                    <use xlink:href="#gDF2041A3F9E1EF30D79CBB61DE33CB45" x="98.00000000000001" y="0" fill="#a5d6ff" fill-rule="nonzero"/>
                                    <use xlink:href="#g730B0364C9DD27CD3A26EA78FFFF9930" x="102.66666666666669" y="0" fill="#a5d6ff" fill-rule="nonzero"/>
                                    <use xlink:href="#g98B84F84D4A20A8BB5D242D4EE9506FE" x="107.33333333333336" y="0" fill="#a5d6ff" fill-rule="nonzero"/>
                                </g>
                                <path class="typst-shape" fill="#21262d" fill-rule="nonzero" stroke="#8b949e" stroke-width="1" stroke-linecap="butt" stroke-linejoin="miter" stroke-miterlimit="4" transform="matrix(1 0 0 1 180 0)" d="M 0 0v 45 h 40 v -45 Z "/>
                                <g class="typst-text" transform="matrix(1 0 0 -1 182.8888888888889 20.575)">
                                    <use xlink:href="#g246204AD84D4AC10D5EFC9E93E90AE57" x="0" y="0" fill="#ffffff" fill-rule="nonzero"/>
                                    <use xlink:href="#g246204AD84D4AC10D5EFC9E93E90AE57" x="9.333333333333332" y="0" fill="#ffffff" fill-rule="nonzero"/>
                                    <use xlink:href="#g246204AD84D4AC10D5EFC9E93E90AE57" x="18.666666666666664" y="0" fill="#ffffff" fill-rule="nonzero"/>
                                </g>
                                <g class="typst-text" transform="matrix(1 0 0 -1 188.33333333333331 34.925000000000004)">
                                    <use xlink:href="#g730B0364C9DD27CD3A26EA78FFFF9930" x="0" y="0" fill="#a5d6ff" fill-rule="nonzero"/>
                                    <use xlink:href="#gF5EE6A836E5594C6C4300FD1492DC88C" x="4.666666666666666" y="0" fill="#a5d6ff" fill-rule="nonzero"/>
                                    <use xlink:href="#gC8A497E166BBD6DD365534622E06434" x="9.333333333333332" y="0" fill="#a5d6ff" fill-rule="nonzero"/>
                                    <use xlink:href="#gABEF05BBF1B2C38F11DA0C9C9E72F613" x="13.999999999999998" y="0" fill="#a5d6ff" fill-rule="nonzero"/>
                                    <use xlink:href="#g68970AA9F6F75A089ED0CD35F88CA39C" x="18.666666666666664" y="0" fill="#a5d6ff" fill-rule="nonzero"/>
                                </g>
                                <path class="typst-shape" fill="#238636" fill-rule="nonzero" stroke="#8b949e" stroke-width="1" stroke-linecap="butt" stroke-linejoin="miter" stroke-miterlimit="4" transform="matrix(1 0 0 1 220 0)" d="M 0 0v 45 h 30 v -45 Z "/>
                                <g class="typst-text" transform="matrix(1 0 0 -1 230.33333333333331 20.575)">
                                    <use xlink:href="#gA616D9181F0B5B25BC8DEF42A2EA01DC" x="0" y="0" fill="#ffffff" fill-rule="nonzero"/>
                                </g>
                                <g class="typst-text" transform="matrix(1 0 0 -1 225.66666666666669 34.925000000000004)">
                                    <use xlink:href="#g4CB96657F74F1790CD0C5EAC4FA3CDD3" x="0" y="0" fill="#a5d6ff" fill-rule="nonzero"/>
                                    <use xlink:href="#g72776E3D1A75085B40F2C1ECD5F956C1" x="4.666666666666666" y="0" fill="#a5d6ff" fill-rule="nonzero"/>
                                    <use xlink:href="#gE95C3AD6C693D72DBE71240E1960B193" x="9.333333333333332" y="0" fill="#a5d6ff" fill-rule="nonzero"/>
                                    <use xlink:href="#g730B0364C9DD27CD3A26EA78FFFF9930" x="13.999999999999998" y="0" fill="#a5d6ff" fill-rule="nonzero"/>
                                </g>
                            </g>
                        </g>
                    </g>
                </g>
            </g>
        </g>
    </g>
    <defs id="glyph">
        <symbol id="gCF5BB21970CF4736E00452CDE75A23F6" overflow="visible">
            <path d="M 0 0m 0 -2.3333333 v 1.1666666 h 1.1666666 v 7 h -1.1666666 v 1.1666665 h 2.3333333 v -1.1666665 h 1.1666667 v -3.5000002 h 2.3333335 v 3.5000002 h -2.3333335 v 1.1666665 h 3.5 v -1.1666665 h 1.166667 v -3.5000002 h -1.166667 v -1.1666666 h -3.5 v -2.3333333 h 1.1666665 v -1.1666666 h -4.6666665 Z "/>
        </symbol>
        <symbol id="gD4F92B52706F960662A427C33C793561" overflow="visible">
            <path d="M 0 0m 0 1.1666666 v 2.3333335 h 1.1666666 v 1.1666665 h 3.5 v 1.166667 h -3.5 v 1.1666665 h 4.666667 v -1.1666665 h 1.1666665 v -4.666667 h 1.166667 v -1.1666666 h -2.3333335 v 1.1666666 h -1.166667 v 2.3333335 h -2.3333333 v -2.3333335 h 2.3333333 v -1.1666666 h -3.5 v 1.1666666 h -1.1666666 Z "/>
        </symbol>
        <symbol id="g78F52DD90568D9578996844C6AE65CE3" overflow="visible">
            <path d="M 0 0m 0 1.1666666 v 3.5 h 1.1666666 v 1.166667 h 1.1666666 v 1.1666665 h 2.3333333 v 2.333333 h -1.1666665 v 1.166667 h 3.5 v -9.333333 h 1.166667 v -1.1666666 h -2.3333335 v 1.1666666 h -1.166667 v 4.666667 h -1.1666665 v -1.166667 h -1.1666667 v -3.5 h 2.3333333 v -1.1666666 h -3.5 v 1.1666666 h -1.1666666 Z "/>
        </symbol>
        <symbol id="g7B84CBA4DE0DE8F194D99F7B5AC86DF9" overflow="visible">
            <path d="M 0 0m 0 4.6666665 v 0.5833335 h 1.75 v -1.75 h 1.1666667 v -0.58333325 h 0.58333325 v -0.5833335 h 0.5833335 v -1.75 h -0.5833335 v -0.5833333 h -2.9166667 v 4.6666665 h -0.5833333 Z m 1.75 -4.083333 h 1.1666667 v 1.75 h -0.5833335 v 0.5833335 h -0.58333325 v -2.3333335 Z "/>
        </symbol>
        <symbol id="g2A3AD2375BB2FDBCF3B7AA87DCB41418" overflow="visible">
            <path d="M 0 0m 0 0.5833333 v 1.1666667 h 0.5833333 v 0.58333325 h 1.75 v 0.5833335 h -1.75 v 0.58333325 h 2.3333335 v -0.58333325 h 0.58333325 v -2.3333335 h 0.5833335 v -0.5833333 h -1.1666667 v 0.5833333 h -0.5833335 v 1.1666667 h -1.1666666 v -1.1666667 h 1.1666666 v -0.5833333 h -1.75 v 0.5833333 h -0.5833333 Z "/>
        </symbol>
        <symbol id="gBB560E0332772C59C6C3A76EE988F066" overflow="visible">
            <path d="M 0 0m 0 0.5833333 v 2.3333335 h 0.5833333 v 0.58333325 h 2.9166667 v -0.58333325 h 0.5833335 v -0.5833335 h -1.1666667 v 0.5833335 h -1.7500001 v -2.3333335 h 1.7500001 v 0.5833333 h 1.1666667 v -0.5833333 h -0.5833335 v -0.5833333 h -2.9166667 v 0.5833333 h -0.5833333 Z "/>
        </symbol>
        <symbol id="g9AAB665279A336A07328C3B66AF5528" overflow="visible">
            <path d="M 0 0v 0.5833333 h 0.5833333 v 4.083333 h -0.5833333 v 0.5833335 h 1.75 v -2.9166667 h 0.58333325 v 0.5833335 h 0.5833335 v 0.58333325 h 1.1666667 v -0.58333325 h -0.5833335 v -0.5833335 h -0.58333325 v -0.58333325 h 0.58333325 v -0.5833334 h 0.5833335 v -1.1666666 h -1.1666667 v 1.1666666 h -0.5833335 v 0.5833334 h -0.58333325 v -1.75 h -1.75 Z "/>
        </symbol>
        <symbol id="gD12300C58EBD3DFCAB5863FD6FBA05F9" overflow="visible">
            <path d="M 0 0m 0 -1.1666666 v 0.5833333 h 4.6666665 v -0.5833333 h -4.6666665 Z "/>
        </symbol>
        <symbol id="gC8A497E166BBD6DD365534622E06434" overflow="visible">
            <path d="M 0 0m 0 -1.1666666 v 0.5833333 h 0.5833333 v 3.5 h -0.5833333 v 0.58333325 h 1.1666666 v -0.58333325 h 0.5833334 v -1.7500001 h 1.1666667 v 1.7500001 h -1.1666667 v 0.58333325 h 1.75 v -0.58333325 h 0.5833335 v -1.7500001 h -0.5833335 v -0.5833333 h -1.75 v -1.1666666 h 0.58333325 v -0.5833333 h -2.3333333 Z "/>
        </symbol>
        <symbol id="gABEF05BBF1B2C38F11DA0C9C9E72F613" overflow="visible">
            <path d="M 0 0m 0 2.9166667 v 0.58333325 h 1.1666666 v 1.1666665 h 0.5833334 v 0.5833335 h 0.58333325 v -1.75 h 1.1666667 v -0.58333325 h -1.1666667 v -2.3333335 h 0.5833335 v 0.5833333 h 1.1666667 v -0.5833333 h -0.5833335 v -0.5833333 h -1.75 v 0.5833333 h -0.5833334 v 2.3333335 h -1.1666666 Z "/>
        </symbol>
        <symbol id="gDF2041A3F9E1EF30D79CBB61DE33CB45" overflow="visible">
            <path d="M 0 0v 0.5833333 h 0.5833333 v 2.3333335 h -0.5833333 v 0.58333325 h 1.1666666 v -0.58333325 h 0.5833334 v 0.58333325 h 1.75 v -0.58333325 h 0.5833335 v -1.1666667 h -1.1666667 v 1.1666667 h -0.5833335 v -0.5833335 h -0.58333325 v -1.75 h 0.58333325 v -0.5833333 h -2.3333333 Z "/>
        </symbol>
        <symbol id="gEA141592ED784869B8281B9C264FCC9" overflow="visible">
            <path d="M 0 0v 1.1666666 h 1.1666666 v 8.166666 h -1.1666666 v 1.166667 h 3.5 v -4.6666665 h 1.1666665 v -1.166667 h -1.1666665 v -4.6666665 h -3.5 Z m 4.6666665 5.8333335 v 1.1666665 h 2.3333335 v -1.1666665 h 1.166667 v -5.8333335 h -2.3333335 v 5.8333335 h -1.166667 Z "/>
        </symbol>
        <symbol id="g4CB96657F74F1790CD0C5EAC4FA3CDD3" overflow="visible">
            <path d="M 0 0m 0 0.5833333 v 0.5833333 h 1.1666666 v -0.5833333 h 1.7500001 v 0.5833333 h -1.1666667 v 0.5833334 h -1.1666667 v 0.58333325 h -0.5833333 v 0.5833335 h 0.5833333 v 0.58333325 h 2.9166667 v -0.58333325 h 0.5833335 v -0.5833335 h -1.1666667 v 0.5833335 h -1.7500001 v -0.5833335 h 1.1666666 v -0.58333325 h 1.1666667 v -0.5833334 h 0.5833335 v -0.5833333 h -0.5833335 v -0.5833333 h -2.9166667 v 0.5833333 h -0.5833333 Z "/>
        </symbol>
        <symbol id="g72776E3D1A75085B40F2C1ECD5F956C1" overflow="visible">
            <path d="M 0 0m 1.1666666 0 v 0.5833333 h 0.5833334 v 2.3333335 h -0.5833334 v 0.58333325 h 1.7500001 v -2.9166667 h 0.58333325 v -0.5833333 h -2.3333335 Z m 0.5833334 4.0833335 v 1.1666665 h 1.1666667 v -1.1666665 h -1.1666667 Z "/>
        </symbol>
        <symbol id="gE95C3AD6C693D72DBE71240E1960B193" overflow="visible">
            <path d="M 0 0v 0.5833333 h 0.5833333 v 0.5833333 h 0.5833333 v 0.5833334 h 0.5833334 v 0.58333325 h 0.58333325 v 0.5833335 h -1.1666666 v -0.5833335 h -1.1666666 v 1.1666667 h 4.0833335 v -0.58333325 h -0.5833335 v -0.5833335 h -0.58333325 v -0.58333325 h -0.5833335 v -0.5833334 h -0.58333325 v -0.5833333 h 1.1666667 v 0.5833333 h 1.1666667 v -1.1666666 h -4.0833335 Z "/>
        </symbol>
        <symbol id="g730B0364C9DD27CD3A26EA78FFFF9930" overflow="visible">
            <path d="M 0 0m 0 0.5833333 v 2.3333335 h 0.5833333 v 0.58333325 h 2.9166667 v -0.58333325 h 0.5833335 v -1.1666667 h -2.916667 v -1.1666667 h 1.7500001 v 0.5833333 h 1.1666667 v -0.5833333 h -0.5833335 v -0.5833333 h -2.9166667 v 0.5833333 h -0.5833333 Z m 1.1666666 2.3333335 v -0.5833335 h 1.7500001 v 0.5833335 h -1.7500001 Z "/>
        </symbol>
        <symbol id="g17128DC925FD840645B4F1835B0245E0" overflow="visible">
            <path d="M 0 0m 0 5.8333335 v 1.1666665 h 2.3333333 v 2.333333 h 1.1666667 v 1.166667 h 1.1666665 v -3.5 h 2.3333335 v -1.1666665 h -2.3333335 v -4.666667 h 1.166667 v 1.1666666 h 2.3333335 v -1.1666666 h -1.166667 v -1.1666666 h -3.5 v 1.1666666 h -1.1666667 v 4.666667 h -2.3333333 Z "/>
        </symbol>
        <symbol id="g27EB430B3ADBA7D9D06B374356F83462" overflow="visible">
            <path d="M 0 0m 2.9166667 0.5833333 h 0.58333325 v -0.5833333 h -2.3333335 v 0.5833333 h 0.5833334 v 4.083333 h -0.5833334 v 0.5833335 h 1.7500001 v -4.6666665 Z "/>
        </symbol>
        <symbol id="gC448A420E412BF9A44DB55F96D8A1569" overflow="visible">
            <path d="M 0 0m 0 -0.5833333 v 0.5833333 h 1.1666666 v -0.5833333 h 1.1666666 v 1.1666666 h -1.75 v 0.5833333 h -0.5833333 v 1.7500001 h 0.5833333 v 0.58333325 h 1.75 v -0.58333325 h -1.1666666 v -1.7500001 h 1.1666666 v 1.7500001 h 0.5833335 v 0.58333325 h 1.1666667 v -0.58333325 h -0.5833335 v -3.5 h -0.58333325 v -0.5833333 h -2.3333335 v 0.5833333 h -0.5833333 Z "/>
        </symbol>
        <symbol id="g7141784318F8D75695D1D0F9E7566C5" overflow="visible">
            <path d="M 0 0m 0 2.9166667 v 0.58333325 h 1.1666666 v -0.58333325 h 0.5833334 v -2.9166667 h -1.1666667 v 2.9166667 h -0.5833333 Z m 1.75 0 v 0.58333325 h 1.75 v -0.58333325 h 0.5833335 v -2.9166667 h -1.1666667 v 2.9166667 h -1.1666667 Z "/>
        </symbol>
        <symbol id="g98B84F84D4A20A8BB5D242D4EE9506FE" overflow="visible">
            <path d="M 0 0m 0 0.5833333 v 1.75 h 0.5833333 v 0.5833335 h 0.5833333 v 0.58333325 h 1.1666666 v 1.1666665 h -0.58333325 v 0.5833335 h 1.75 v -4.6666665 h 0.5833335 v -0.5833333 h -1.1666667 v 0.5833333 h -0.5833335 v 2.3333335 h -0.58333325 v -0.5833335 h -0.5833334 v -1.75 h 1.1666666 v -0.5833333 h -1.75 v 0.5833333 h -0.5833333 Z "/>
        </symbol>
        <symbol id="g77169F1ABD6086B3D7CD7D50200E5B7E" overflow="visible">
            <path d="M 0 0m 0 2.3333333 v 0.5833335 h 4.0833335 v -0.5833335 h -4.0833335 Z "/>
        </symbol>
        <symbol id="g902CE73D04E9DC68E90DE0E14C4AA101" overflow="visible">
            <path d="M 0 0m 1.1666666 0.5833333 v 0.5833333 h 0.5833334 v 0.5833334 h 0.58333325 v 0.58333325 h 0.5833335 v 0.5833335 h -0.5833335 v 0.58333325 h -0.58333325 v 0.5833335 h -0.5833334 v 0.583333 h -0.5833333 v 0.5833335 h 1.1666667 v -0.5833335 h 0.58333325 v -0.583333 h 0.5833335 v -0.5833335 h 0.58333325 v -0.58333325 h 0.5833335 v -0.5833335 h -0.5833335 v -0.58333325 h -0.58333325 v -0.5833334 h -0.5833335 v -0.5833333 h -0.58333325 v -0.5833333 h -1.1666667 v 0.5833333 h 0.5833333 Z "/>
        </symbol>
        <symbol id="gA616D9181F0B5B25BC8DEF42A2EA01DC" overflow="visible">
            <path d="M 0 0v 1.1666666 h 1.1666666 v 3.5 h -1.1666666 v 1.166667 h 1.1666666 v 3.4999995 h 1.1666666 v 1.166667 h 3.5000002 v -1.166667 h 1.1666665 v -2.333333 h -1.1666665 v 1.166667 h -1.166667 v 1.166666 h -1.1666665 v -3.4999995 h 1.1666665 v -1.166667 h -1.1666665 v -3.5 h 1.1666665 v -1.1666666 h -4.6666665 Z "/>
        </symbol>
        <symbol id="g5D52FC5AEA62DAAC7F7244E0492F308D" overflow="visible">
            <path d="M 0 0v 1.1666666 h 1.1666666 v 4.666667 h -1.1666666 v 1.1666665 h 2.3333333 v -1.1666665 h 1.1666667 v 1.1666665 h 3.5 v -1.1666665 h 1.166667 v -2.3333335 h -2.3333335 v 2.3333335 h -1.166667 v -1.166667 h -1.1666665 v -3.5 h 1.1666665 v -1.1666666 h -4.6666665 Z "/>
        </symbol>
        <symbol id="g91E8BDFB13DC5CC27F7FA635D859F618" overflow="visible">
            <path d="M 0 0m 0 1.1666666 v 4.666667 h 1.1666666 v 1.1666665 h 5.8333335 v -1.1666665 h 1.166667 v -2.3333335 h -5.833334 v -2.3333335 h 3.5000002 v 1.1666666 h 2.3333335 v -1.1666666 h -1.166667 v -1.1666666 h -5.8333335 v 1.1666666 h -1.1666666 Z m 2.3333333 4.666667 v -1.166667 h 3.5000002 v 1.166667 h -3.5000002 Z "/>
        </symbol>
        <symbol id="g42178610C96C37130842B8EFA86974BE" overflow="visible">
            <path d="M 0 0m 0 5.8333335 v 1.1666665 h 2.3333333 v -1.1666665 h 1.1666667 v -5.8333335 h -2.3333335 v 5.8333335 h -1.1666666 Z m 3.5 0 v 1.1666665 h 3.5 v -1.1666665 h 1.166667 v -5.8333335 h -2.3333335 v 5.8333335 h -2.3333335 Z "/>
        </symbol>
        <symbol id="g7E46E3C9FA9DC61B6697E6C0870D8E9D" overflow="visible">
            <path d="M 0 0m 0 1.1666666 v 4.666667 h 1.1666666 v 1.1666665 h 5.8333335 v -1.1666665 h 1.166667 v -4.666667 h -1.166667 v -1.1666666 h -5.8333335 v 1.1666666 h -1.1666666 Z m 2.3333333 0 h 3.5000002 v 4.666667 h -3.5000002 v -4.666667 Z "/>
        </symbol>
        <symbol id="g567877D3CCE48BDA366A4E85F362FDBB" overflow="visible">
            <path d="M 0 0m 2.3333333 0 v -0.5833333 h -1.1666666 v 0.5833333 h 0.5833334 v 1.75 h 1.1666667 v -1.75 h -0.5833335 Z "/>
        </symbol>
        <symbol id="g706C70AEEFADA44366EF1F11D5B5171B" overflow="visible">
            <path d="M 0 0v 0.5833333 h 0.5833333 v 1.75 h -0.5833333 v 0.5833335 h 0.5833333 v 1.7499998 h 0.5833333 v 0.5833335 h 1.7500001 v -0.5833335 h 0.58333325 v -1.1666665 h -0.58333325 v 0.5833335 h -0.5833335 v 0.583333 h -0.58333325 v -1.7499998 h 0.58333325 v -0.5833335 h -0.58333325 v -1.75 h 0.58333325 v -0.5833333 h -2.3333333 Z "/>
        </symbol>
        <symbol id="gE3116C6A8C9BB7676C10DC6A7FB06EF4" overflow="visible">
            <path d="M 0 0v 0.5833333 h 0.5833333 v 4.083333 h -0.5833333 v 0.5833335 h 1.75 v -2.3333333 h 0.58333325 v -0.5833335 h -0.58333325 v -2.3333333 h -1.75 Z m 2.3333333 2.9166667 v 0.58333325 h 1.1666667 v -0.58333325 h 0.5833335 v -2.9166667 h -1.1666667 v 2.9166667 h -0.5833335 Z "/>
        </symbol>
        <symbol id="g246204AD84D4AC10D5EFC9E93E90AE57" overflow="visible">
            <path d="M 0 0m 5.8333335 2.3333333 v -2.3333333 h -2.3333335 v 2.3333333 h 2.3333335 Z "/>
        </symbol>
        <symbol id="gF5EE6A836E5594C6C4300FD1492DC88C" overflow="visible">
            <path d="M 0 0v 3.5 h 1.75 v -0.58333325 h 0.58333325 v 0.58333325 h 1.1666667 v -0.58333325 h 0.5833335 v -2.9166667 h -1.1666667 v 2.3333333 h -0.5833335 v -1.75 h -0.58333325 v 1.75 h -0.5833334 v -2.3333333 h -1.1666666 Z "/>
        </symbol>
        <symbol id="g68970AA9F6F75A089ED0CD35F88CA39C" overflow="visible">
            <path d="M 0 0m 0 -1.1666666 v 0.5833333 h 2.3333333 v 0.5833333 h 0.5833335 v 0.5833333 h -2.3333335 v 0.5833333 h -0.5833333 v 2.3333335 h 1.1666666 v -2.3333335 h 1.7500001 v 2.3333335 h 1.1666667 v -3.5 h -0.5833335 v -0.5833333 h -0.58333325 v -0.5833333 h -2.9166667 Z "/>
        </symbol>
    </defs>
</svg>
